<?xml version="1.0" standalone="no"?>
<!DOCTYPE svg PUBLIC "-//W3C//DTD SVG 20010904//EN"
 "http://www.w3.org/TR/2001/REC-SVG-20010904/DTD/svg10.dtd">
<svg version="1.0" xmlns="http://www.w3.org/2000/svg"
 width="382.000000pt" height="132.000000pt" viewBox="0 0 382.000000 132.000000"
 preserveAspectRatio="xMidYMid meet">

<g transform="translate(0.000000,132.000000) scale(0.100000,-0.100000)"
fill="#000000" stroke="none">
<path d="M562 1309 c-147 -22 -268 -87 -377 -200 -124 -130 -179 -272 -178
-459 2 -186 66 -333 204 -465 126 -121 271 -178 449 -178 112 -1 179 14 278
59 79 36 189 117 223 165 l21 30 38 -44 c61 -68 141 -100 267 -105 72 -3 124
1 178 13 l77 17 -7 61 c-11 100 -6 96 -78 80 -128 -26 -229 -12 -285 40 -25
23 -52 68 -52 87 0 7 73 10 220 10 l219 0 7 36 c9 50 -12 166 -40 223 -64 126
-212 181 -365 135 -29 -8 -54 -14 -55 -12 0 2 -11 33 -24 70 -42 125 -115 228
-216 305 -67 51 -176 104 -246 121 -70 16 -189 21 -258 11z m-123 -371 c44
-119 161 -415 196 -493 l26 -60 43 100 c24 55 78 190 120 300 42 110 81 210
86 223 9 21 15 22 125 22 l114 0 -30 -82 c-71 -193 -221 -536 -323 -738 l-42
-85 -92 -3 -91 -3 -42 83 c-107 212 -323 715 -344 801 l-7 27 114 0 114 0 33
-92z m1097 -265 c26 -17 69 -97 59 -113 -4 -6 -59 -10 -141 -10 -148 0 -147 0
-120 63 33 79 130 108 202 60z"/>
<path d="M2051 815 c-30 -9 -73 -26 -95 -38 l-41 -22 -3 -325 -2 -325 100 0
100 0 0 262 0 263 27 17 c20 14 45 18 99 16 l71 -1 13 70 c9 50 9 73 1 81 -17
17 -209 19 -270 2z"/>
<path d="M2445 818 c2 -7 25 -78 51 -158 55 -173 129 -361 184 -470 l40 -80
84 0 83 0 55 117 c67 143 134 318 182 477 20 64 36 119 36 122 0 2 -45 4 -99
4 l-100 0 -15 -57 c-29 -104 -95 -307 -120 -368 -23 -57 -25 -59 -34 -35 -58
154 -85 234 -113 337 l-34 123 -102 0 c-78 0 -101 -3 -98 -12z"/>
<path d="M3403 812 c-141 -50 -213 -164 -213 -336 0 -189 79 -306 238 -352 65
-19 259 -15 325 7 l39 13 -7 70 c-4 39 -9 74 -11 77 -2 3 -31 0 -66 -7 -124
-26 -222 -15 -278 33 -30 25 -60 71 -60 93 0 7 73 10 220 10 l220 0 6 27 c10
40 -12 179 -37 230 -46 96 -127 144 -249 150 -55 3 -89 -1 -127 -15z m188
-143 c28 -19 64 -93 54 -110 -4 -5 -67 -9 -142 -9 l-135 0 6 32 c9 45 51 96
89 107 41 13 94 4 128 -20z"/>
</g>
</svg>
